<?xml version="1.0" standalone="no"?>
<!DOCTYPE svg PUBLIC "-//W3C//DTD SVG 20010904//EN"
 "http://www.w3.org/TR/2001/REC-SVG-20010904/DTD/svg10.dtd">
<svg version="1.0" xmlns="http://www.w3.org/2000/svg"
 width="320.000000pt" height="132.000000pt" viewBox="0 0 320.000000 132.000000"
 preserveAspectRatio="xMidYMid meet">

<g transform="translate(0.000000,132.000000) scale(0.100000,-0.100000)"
fill="#000000" stroke="none">
<path d="M452 1220 c-11 -12 -26 -42 -35 -68 -9 -26 -39 -112 -67 -192 -28
-80 -60 -170 -70 -200 -19 -57 -97 -277 -145 -410 -67 -184 -115 -326 -115
-337 0 -10 29 -13 118 -13 l118 0 18 57 c10 32 22 67 27 78 4 11 24 70 45 130
20 61 41 113 48 117 19 13 1900 10 1913 -3 8 -8 4 -35 -14 -97 -14 -48 -29
-103 -33 -122 -4 -19 -15 -61 -24 -93 -9 -32 -16 -60 -16 -62 0 -3 53 -5 119
-5 115 0 119 1 124 23 6 22 10 39 42 152 26 92 36 127 45 165 4 19 16 62 25
95 15 52 29 106 60 225 29 109 43 116 69 33 68 -224 98 -321 105 -343 5 -14
14 -43 20 -65 14 -51 41 -143 51 -175 4 -14 13 -44 20 -67 l13 -43 120 0 c119
0 119 0 112 23 -3 12 -10 36 -14 52 -5 17 -39 127 -76 245 -37 118 -71 229
-75 245 -4 17 -17 62 -29 100 -12 39 -26 88 -33 110 -6 22 -21 72 -33 110 -12
39 -27 88 -33 110 -7 22 -23 76 -36 120 -14 44 -27 90 -31 103 l-6 22 -1154 0
c-1149 0 -1154 0 -1173 -20z m1357 -201 c80 -14 118 -32 133 -64 19 -42 -3
-55 -91 -55 -65 0 -78 3 -89 20 -10 16 -23 20 -67 20 -47 0 -55 -3 -55 -19 0
-15 10 -20 48 -26 114 -17 197 -46 212 -76 33 -60 -24 -131 -136 -168 -73 -24
-246 -29 -305 -10 -48 17 -89 57 -89 90 0 26 2 27 81 34 l82 7 29 -33 c28 -30
32 -31 81 -26 60 8 90 29 67 50 -8 8 -46 19 -85 27 -158 29 -209 78 -150 148
33 39 80 61 168 77 94 17 90 17 166 4z m-1009 -19 c0 -4 -18 -55 -41 -111 -22
-57 -44 -113 -49 -124 -32 -82 -45 -112 -53 -122 -12 -16 -163 -18 -172 -2 -6
9 -1 27 30 104 7 17 25 62 40 100 15 39 31 78 36 87 5 10 9 25 9 33 0 8 8 23
18 33 14 14 31 16 100 14 45 -2 82 -7 82 -12z m1480 -9 c0 -9 -4 -21 -8 -26
-4 -6 -14 -28 -21 -50 -7 -22 -16 -49 -21 -60 -20 -44 -40 -98 -40 -106 0 -5
55 -9 123 -9 67 0 129 -5 137 -10 12 -8 11 -15 -8 -55 l-22 -45 -222 2 c-205
3 -223 4 -226 21 -2 10 26 94 63 187 74 190 62 178 183 172 51 -3 62 -7 62
-21z m-870 9 c0 -24 -25 -59 -47 -65 -13 -3 -81 -5 -151 -4 -110 1 -127 -1
-139 -17 -7 -10 -13 -21 -13 -26 0 -4 55 -8 123 -8 67 0 128 -4 135 -9 15 -9
7 -57 -12 -69 -6 -4 -71 -9 -145 -12 -109 -4 -136 -8 -144 -21 -6 -9 -7 -24
-4 -33 5 -14 26 -16 147 -16 134 0 140 -1 140 -20 0 -12 -7 -32 -16 -45 l-16
-25 -234 0 c-207 0 -235 2 -241 16 -5 13 35 127 87 249 5 11 16 41 26 68 l17
47 243 0 c148 0 244 -4 244 -10z"/>
</g>
</svg>
