<?xml version="1.0" standalone="no"?>
<!DOCTYPE svg PUBLIC "-//W3C//DTD SVG 20010904//EN"
 "http://www.w3.org/TR/2001/REC-SVG-20010904/DTD/svg10.dtd">
<svg version="1.0" xmlns="http://www.w3.org/2000/svg"
 width="225.000000pt" height="225.000000pt" viewBox="0 0 225.000000 225.000000"
 preserveAspectRatio="xMidYMid meet">

<g transform="translate(0.000000,225.000000) scale(0.100000,-0.100000)"
fill="#000000" stroke="none">
<path d="M0 1125 l0 -1125 1125 0 1125 0 0 1125 0 1125 -1125 0 -1125 0 0
-1125z m359 178 c-14 -3 -17 -23 -21 -115 -3 -101 -5 -112 -27 -129 -15 -12
-39 -19 -66 -19 -46 0 -69 17 -63 47 5 27 31 22 38 -7 7 -28 34 -38 55 -20 12
10 15 39 15 125 0 100 -2 114 -17 118 -10 3 9 5 42 5 33 0 53 -2 44 -5z m275
-14 c59 -46 15 -129 -69 -129 l-45 0 0 -46 c0 -37 4 -47 20 -51 40 -11 18 -23
-40 -23 -58 0 -80 12 -40 23 19 5 20 14 20 120 0 102 -2 116 -17 120 -10 3 19
5 63 6 68 1 86 -2 108 -20z m202 -84 c39 -91 43 -98 52 -75 5 14 24 60 42 103
32 76 33 77 69 76 20 0 30 -3 24 -6 -10 -3 -13 -38 -13 -124 0 -99 3 -119 15
-119 8 0 15 -4 15 -10 0 -5 -25 -10 -55 -10 -30 0 -55 5 -55 10 0 6 7 10 15
10 12 0 15 17 15 98 l-1 97 -46 -109 -46 -109 -24 49 c-13 27 -37 78 -53 114
l-29 65 -1 -102 c0 -85 3 -103 15 -103 8 0 15 -4 15 -10 0 -5 -18 -10 -40 -10
-22 0 -40 5 -40 10 0 6 7 10 15 10 12 0 15 20 15 119 0 105 -2 120 -17 124
-10 3 2 5 26 4 l44 -2 43 -100z m810 33 c4 -6 -2 -19 -14 -29 -12 -9 -22 -29
-22 -42 0 -14 -7 -32 -15 -41 -15 -14 -75 -36 -102 -36 -7 0 -13 -7 -13 -15 0
-11 13 -15 53 -15 81 0 116 -36 87 -90 -30 -57 -199 -43 -176 15 8 23 34 18
38 -7 3 -20 10 -23 49 -26 32 -2 51 2 62 13 32 31 0 55 -75 55 -20 0 -43 3
-52 6 -23 9 -20 51 4 64 19 10 19 11 0 30 -61 61 32 152 112 109 17 -9 23 -8
30 5 11 19 24 21 34 4z m-431 -23 c20 -19 25 -34 25 -73 0 -66 -31 -102 -90
-102 -60 0 -90 33 -90 100 0 67 30 100 90 100 30 0 47 -6 65 -25z m115 10 c0
-19 7 -19 27 1 19 19 52 15 67 -8 15 -24 0 -34 -29 -18 -39 21 -55 0 -55 -72
0 -43 4 -60 15 -64 32 -13 13 -24 -40 -24 -30 0 -55 5 -55 10 0 6 6 10 14 10
20 0 26 23 26 96 0 57 -2 64 -20 64 -11 0 -20 5 -20 10 0 6 16 10 35 10 24 0
35 -5 35 -15z m474 -7 c11 -15 16 -45 16 -85 0 -63 6 -73 28 -51 8 8 12 9 12
1 0 -16 -29 -43 -45 -43 -8 0 -20 6 -27 13 -10 11 -17 11 -39 -2 -39 -22 -83
-6 -87 32 -5 38 12 55 64 68 39 10 44 15 44 39 0 16 -7 30 -16 34 -20 8 -54
-11 -54 -29 0 -18 -26 -20 -36 -3 -13 20 35 48 82 48 33 0 46 -5 58 -22z m122
8 c5 -12 10 -12 34 2 22 13 35 14 57 7 27 -10 28 -13 33 -89 3 -51 10 -81 18
-84 28 -9 9 -22 -33 -22 -25 0 -45 5 -45 10 0 6 5 10 10 10 6 0 10 30 10 69 0
78 -14 100 -49 81 -18 -9 -21 -20 -21 -80 0 -40 4 -70 10 -70 6 0 10 -4 10
-10 0 -12 -87 -13 -94 -1 -3 5 1 11 9 15 22 8 22 156 0 156 -8 0 -15 5 -15 10
0 16 60 12 66 -4z m-1518 -163 c5 -17 -26 -29 -40 -15 -6 6 -7 15 -3 22 9 14
37 9 43 -7z m250 0 c5 -17 -26 -29 -40 -15 -6 6 -7 15 -3 22 9 14 37 9 43 -7z"/>
<path d="M520 1235 l0 -65 30 0 c37 0 70 31 70 65 0 34 -33 65 -70 65 l-30 0
0 -65z"/>
<path d="M1513 1223 c-18 -7 -27 -67 -14 -92 24 -44 71 -19 71 39 0 49 -21 68
-57 53z"/>
<path d="M1120 1210 c-26 -26 -28 -120 -4 -144 40 -41 84 -1 84 76 0 47 -23
88 -50 88 -5 0 -19 -9 -30 -20z"/>
<path d="M1717 1122 c-34 -38 -11 -75 32 -52 28 14 30 70 3 70 -11 0 -26 -8
-35 -18z"/>
</g>
</svg>
